<?xml version="1.0" encoding="utf-8"?>
<!-- Generator: Adobe Illustrator 28.0.0, SVG Export Plug-In . SVG Version: 6.00 Build 0)  -->
<svg version="1.1" id="Layer_1" xmlns="http://www.w3.org/2000/svg" xmlns:xlink="http://www.w3.org/1999/xlink" x="0px" y="0px"
	 viewBox="0 0 562.9 116.3" style="enable-background:new 0 0 562.9 116.3;" xml:space="preserve">
<style type="text/css">
	.st0{fill:#FFFFFF;}
</style>
<g id="Group_9" transform="translate(0 0)">
	<g id="Group_6">
		<path id="Path_15" class="st0" d="M220.6,41.1c0,22.7-18.4,41.1-41.1,41.1s-41.1-18.4-41.1-41.1S156.8,0,179.5,0l0,0
			C202.2,0,220.6,18.4,220.6,41.1C220.6,41.1,220.6,41.1,220.6,41.1z"/>
		<path id="Path_16" class="st0" d="M416.3,8.6v31.6c0,20.9,17,40,37.8,41.5c22.5,1.7,42.2-15.1,43.9-37.7c0.1-1,0.1-2.1,0.1-3.1
			V8.5c0-4.7-3.8-8.5-8.5-8.5h-64.7C420.2,0,416.3,3.8,416.3,8.6C416.3,8.6,416.3,8.6,416.3,8.6z"/>
		<path id="Path_17" class="st0" d="M272,0h-31.7c-4.7,0-8.4,3.8-8.4,8.4l0,0v64.8c0,4.7,3.8,8.5,8.5,8.5l0,0h32.4
			c22.6,0,40.9-18.3,40.9-40.9c0-1,0-2.1-0.1-3.1C312,17,292.9,0,272,0z"/>
		<path id="Path_18" class="st0" d="M406,30.7C406,13.7,392.2,0,375.3,0h-42.6c-4.7,0-8.5,3.8-8.5,8.5v64.9c0,4.6,3.8,8.4,8.4,8.4
			h65.5c2.3,0,4.2-1.9,4.2-4.2c0-0.8-0.2-1.6-0.7-2.3l-11.7-17.6C399.8,52.3,406,41.9,406,30.7z"/>
		<path id="Path_19" class="st0" d="M131.1,8.8c-17.7-14-43.4-11.1-57.4,6.6s-11.1,43.4,6.6,57.4c14.9,11.8,35.9,11.8,50.7,0
			c1.9-1.5,2.2-4.2,0.7-6c-0.1-0.1-0.2-0.3-0.3-0.4l-22.1-22.1c-2-2-2-5.2,0-7.1l22.2-22.2c1.6-1.6,1.6-4.3,0-5.9
			C131.3,9.1,131.2,8.9,131.1,8.8z"/>
	</g>
	<g id="Group_8" transform="translate(8.812 95.737)">
		<g id="Group_7">
			<path id="Path_24" class="st0" d="M69.4,12.1c0,0.6,0,1.1,0,1.6s0,1,0.1,1.5s0,1,0.1,1.6s0,1.2,0,2l-4.4,0L64.8,1
				c1,0,1.9,0,2.7,0s1.6,0,2.4,0c0.8,0,1.6,0,2.5,0c0.9,0,1.8,0,2.9-0.1l-0.1,4l-6,0.1c0,0.3,0.1,0.7,0.1,1c0,0.3,0,0.7,0,1
				s0,0.6,0,0.8s0,0.4,0,0.6c0,0,0.1,0,0.2,0.1s0.3,0,0.5,0s0.4,0,0.7,0h0.8c0.6,0,1.4,0,2.2,0V12L69.4,12.1z"/>
			<path id="Path_25" class="st0" d="M129.5,7.7c0.8,0,1.7,0,2.4,0.1c0,0.4,0,0.7,0,1s0,0.6,0,0.9s0,0.6-0.1,0.9s-0.1,0.7-0.2,1.1
				l-4.7,0c0,0.5,0.1,1,0.1,1.4s0,0.9,0.1,1.4c0.5,0,1-0.1,1.6-0.1s1.1,0,1.6,0s1,0,1.5,0s0.9,0,1.3,0.1c0,0.4-0.1,0.8-0.1,1.1
				s0,0.6-0.1,0.9s0,0.6-0.1,0.9s-0.1,0.7-0.1,1.1c-0.9,0.1-1.7,0.1-2.5,0.1c-0.8,0-1.6,0.1-2.4,0.1c-0.8,0-1.6,0-2.4,0
				c-0.8,0-1.7,0-2.7,0.1c0-1.1-0.1-2.1-0.1-3.1c0-1,0-2.1,0-3.1c0-2,0-3.9,0-5.8c0-1.9,0.1-3.9,0.1-5.8c0.9,0,1.8-0.1,2.6-0.1
				c0.8,0,1.6-0.1,2.3-0.1c0.8,0,1.6-0.1,2.4-0.1l2.7-0.1c0,0.4,0,0.7,0,1s0,0.6,0,0.9s0,0.6,0,1s0,0.8,0.1,1.3l-5.8,0.1l-0.1,2.9
				C127.9,7.7,128.6,7.7,129.5,7.7z"/>
			<path id="Path_26" class="st0" d="M189.7,11.7c0.2,0.6,0.3,1.2,0.3,1.8c0,0.7-0.2,1.4-0.4,2c-0.4,0.8-0.9,1.5-1.4,2.1
				c-0.4,0.3-0.8,0.5-1.2,0.7c-0.4,0.2-0.9,0.3-1.4,0.4c-0.6,0.1-1.1,0.1-1.7,0.1c-0.6,0-1.4,0-2.3,0h-1.2l0-3.8c0.2,0,0.5,0,0.7,0
				c0.2,0,0.5,0,0.8,0c0.3,0,0.6,0,0.9,0c0.3,0,0.6,0,0.9-0.1c0.3-0.1,0.5-0.2,0.8-0.3c0.2-0.2,0.4-0.4,0.6-0.6
				c0.1-0.2,0.1-0.5,0.1-0.7c0-0.3-0.1-0.7-0.2-1c-0.1-0.3-0.3-0.6-0.5-0.9c-0.2-0.3-0.4-0.5-0.7-0.8c-0.3-0.3-0.5-0.5-0.7-0.7
				c-0.4-0.5-0.8-1-1.2-1.5c-0.3-0.5-0.5-1-0.5-1.6c0-0.2,0-0.3,0-0.5s0-0.3,0-0.5c0-0.4,0-0.8,0.1-1.1c0.1-0.4,0.2-0.8,0.3-1.1
				c0.2-0.4,0.4-0.8,0.7-1.1c0.3-0.4,0.7-0.7,1.2-1c0.3-0.2,0.6-0.3,0.9-0.4c0.4-0.1,0.8-0.3,1.2-0.3c0.5-0.1,1-0.2,1.6-0.3
				c0.6-0.1,1.3-0.1,2.1-0.2l0.7,3.9c-0.4,0-0.7,0.1-1.1,0.2c-0.3,0.1-0.5,0.1-0.7,0.1c-0.3,0-0.5,0.1-0.7,0.2
				c-0.2,0.1-0.4,0.2-0.6,0.4c-0.1,0.2-0.2,0.4-0.3,0.6c-0.1,0.2-0.1,0.5-0.1,0.7c0,0.2,0,0.4,0.1,0.6c0.1,0.2,0.1,0.4,0.3,0.5
				c0.4,0.4,0.7,0.8,1,1.3c0.3,0.4,0.6,0.9,0.9,1.3C189.1,10.4,189.4,11,189.7,11.7z"/>
			<path id="Path_27" class="st0" d="M241.1,17.4c0-0.4,0-0.9,0-1.4c0-0.5,0-1,0-1.5s0-1.1,0-1.7c0-0.8,0-1.5,0-2.2
				c0-0.6,0-1.3,0-1.9c0-0.6,0-1.2,0-1.9c0-0.6,0-1.3-0.1-2.1c-0.3,0-0.5,0-0.8,0s-0.5,0-0.9,0h-2.2c0-0.2,0-0.5,0-0.7V3.6
				c0-0.4,0-0.7,0-1s0-0.6,0-0.9V1.2c0-0.2,0-0.3,0-0.5c0.9,0,1.8-0.1,2.6-0.1c0.8,0,1.6,0,2.4,0c0.6,0,1.1,0,1.6,0s1.1,0,1.7,0
				s1.2,0,1.8,0s1.2,0,1.9,0c0,0.2,0,0.4,0,0.6s0,0.4,0,0.6c0,0.4,0,0.8,0,1.3s0,1,0,1.8c-0.4,0-0.7,0-1,0s-0.6,0-0.8,0h-1.8
				c0,1.1,0,2.2,0,3.1s0,1.9,0,2.9s0,2.1,0,3.4s0,2.8,0,4.5l-4.6,0C241.1,18.3,241.1,17.9,241.1,17.4z"/>
			<path id="Path_28" class="st0" d="M297.1,4.3c0-0.5,0-1.1,0-1.6s0-1.3,0.1-2.1c0.2,0,0.4,0,0.5,0s0.3,0,0.5,0c0.4,0,0.7,0,1,0
				s0.7,0,1.2,0h0.5c0.2,0,0.4,0,0.6,0c0.1,2.5,0.1,5,0.1,7.4c0,2.4,0,4.8,0,7.2v3.7l-4.4,0.1c0-1.6,0-3.1,0-4.5V5.9
				C297,5.3,297.1,4.8,297.1,4.3z"/>
			<path id="Path_29" class="st0" d="M363.3,6c-0.4,1.4-0.8,2.8-1.2,4.2c-0.4,1.4-0.8,2.8-1.2,4.2c-0.4,1.4-0.8,2.9-1.2,4.4
				l-4.9,0.1l-5.7-17l1.9-0.6c0.3-0.1,0.6-0.2,0.8-0.2l0.6-0.2c0.2,0,0.4-0.1,0.6-0.1s0.5-0.1,0.8-0.2c0.2,0.6,0.4,1.3,0.7,2.3
				s0.6,2,0.9,3.1s0.6,2.2,1,3.4s0.6,2.2,0.9,3.2c0.3-1,0.5-2.1,0.8-3.2s0.5-2.3,0.7-3.4c0.2-1.1,0.4-2.1,0.7-3
				c0.2-0.9,0.4-1.7,0.5-2.3l4.6,1.1C364.1,3.2,363.7,4.6,363.3,6z"/>
			<path id="Path_30" class="st0" d="M416.9,0.6c0.2,0,0.5,0,0.9,0h0.6c0.2,0,0.5,0,0.7,0c0.5,1.3,0.9,2.7,1.3,4.1s0.7,2.9,1.1,4.3
				c0.4,1.5,0.7,3.1,1.1,4.7c0.4,1.6,0.8,3.3,1.2,5.1l-4.6,0c-0.1-0.4-0.1-0.6-0.2-0.8c0-0.2-0.1-0.4-0.1-0.6s-0.1-0.4-0.1-0.6
				s-0.1-0.5-0.2-0.8c-0.2,0-0.5,0-0.8,0s-0.6,0-0.9,0s-0.6,0-0.9,0s-0.5,0-0.8,0l-0.7,2.7h-2.2c-0.3,0-0.7,0-1,0s-0.8,0-1.4,0
				L414,1.6l0.2-1c0.3,0,0.6,0,0.9,0h1.2C416.5,0.6,416.7,0.6,416.9,0.6z M415.8,12.4c0.2,0,0.3,0,0.6,0h0.7c0.3,0,0.5,0,0.7,0
				l-0.1-1.1c0-0.3-0.1-0.6-0.1-1s-0.1-0.6-0.1-0.9c-0.1-0.4-0.1-0.7-0.2-1.2C417.1,7.8,417,7.4,417,7l-0.3-1.3
				c-0.1,0.4-0.1,0.8-0.2,1.2s-0.2,0.9-0.2,1.4s-0.1,1-0.2,1.5s-0.1,0.9-0.2,1.3s-0.1,0.7-0.2,0.9l0,0.3L415.8,12.4z"/>
			<path id="Path_31" class="st0" d="M475.6,0.6l0.4,14c0.3,0,0.6,0,1,0s0.6,0,1,0s0.7,0,1.1,0s0.8,0,1.3,0c0,0.5,0,0.9,0,1.3v1.9
				c0,0.3,0,0.6,0,1l-7.8,0l-1.3-0.1l-0.3-15l0-3.2L475.6,0.6z"/>
		</g>
	</g>
</g>
</svg>
